<?xml version="1.0" standalone="no"?><!DOCTYPE svg PUBLIC "-//W3C//DTD SVG 1.1//EN" "http://www.w3.org/Graphics/SVG/1.1/DTD/svg11.dtd"><svg t="1527491558805" class="icon" style="" viewBox="0 0 1024 1024" version="1.1" xmlns="http://www.w3.org/2000/svg" p-id="7759" xmlns:xlink="http://www.w3.org/1999/xlink" width="200" height="200"><defs><style type="text/css"></style></defs><path d="M550.4 844.8c-25.6 0-42.666667-17.066667-42.666667-42.666667v-162.133333c0-76.8 64-115.2 123.733334-153.6 68.266667-42.666667 136.533333-85.333333 140.8-179.2 0-119.466667-98.133333-217.6-217.6-217.6s-217.6 98.133333-217.6 217.6c0 25.6-17.066667 42.666667-42.666667 42.666667s-42.666667-17.066667-42.666667-42.666667c0-166.4 136.533333-302.933333 302.933334-302.933333s302.933333 136.533333 302.933333 302.933333c-8.533333 140.8-106.666667 204.8-179.2 247.466667-51.2 29.866667-81.066667 51.2-81.066667 81.066666v162.133334c-4.266667 25.6-25.6 46.933333-46.933333 46.933333z" p-id="7760" fill="#ffffff"></path><path d="M550.4 951.466667m-55.466667 0a55.466667 55.466667 0 1 0 110.933334 0 55.466667 55.466667 0 1 0-110.933334 0Z" p-id="7761" fill="#ffffff"></path></svg>